<svg width="56" height="30" viewBox="0 0 56 30" fill="#282828" xmlns="http://www.w3.org/2000/svg">
<path d="M8.5 6.5L10.4084 12.3734L16.584 12.3734L11.5878 16.0033L13.4962 21.8766L8.5 18.2467L3.50383 21.8766L5.41219 16.0033L0.416019 12.3734L6.59163 12.3734L8.5 6.5Z" fill="#282828"/>
<path d="M32.42 22.32C31.4333 22.32 30.4867 22.0067 29.58 21.38C28.6867 20.74 28.0933 19.82 27.8 18.62L29.44 17.96C29.64 18.7333 30 19.36 30.52 19.84C31.04 20.32 31.66 20.56 32.38 20.56C33.22 20.56 33.9133 20.3 34.46 19.78C35.0067 19.26 35.28 18.58 35.28 17.74C35.28 16.9133 35.0133 16.2333 34.48 15.7C33.9467 15.1533 33.2533 14.88 32.4 14.88C31.44 14.88 30.6733 15.2733 30.1 16.06L28.24 15.26L29.12 8.32H36.3V10.08H30.66L30.16 14L30.24 14.02C30.92 13.4733 31.7467 13.2 32.72 13.2C33.92 13.2 34.9533 13.6333 35.82 14.5C36.7 15.3533 37.14 16.4267 37.14 17.72C37.14 19.0133 36.6867 20.1067 35.78 21C34.8867 21.88 33.7667 22.32 32.42 22.32ZM41.3738 21.72C41.1071 21.9867 40.7871 22.12 40.4138 22.12C40.0404 22.12 39.7204 21.9867 39.4538 21.72C39.1871 21.4533 39.0538 21.1333 39.0538 20.76C39.0538 20.3867 39.1871 20.0667 39.4538 19.8C39.7204 19.5333 40.0404 19.4 40.4138 19.4C40.7871 19.4 41.1071 19.5333 41.3738 19.8C41.6404 20.0667 41.7738 20.3867 41.7738 20.76C41.7738 21.1333 41.6404 21.4533 41.3738 21.72ZM53.1022 20.26C52.0889 21.6333 50.7622 22.32 49.1222 22.32C47.4822 22.32 46.1555 21.6333 45.1422 20.26C44.1289 18.8867 43.6222 17.1867 43.6222 15.16C43.6222 13.12 44.1289 11.42 45.1422 10.06C46.1555 8.68667 47.4822 8 49.1222 8C50.7622 8 52.0889 8.68667 53.1022 10.06C54.1155 11.42 54.6222 13.12 54.6222 15.16C54.6222 17.1867 54.1155 18.8867 53.1022 20.26ZM49.1222 20.56C50.2155 20.56 51.0889 20.0467 51.7422 19.02C52.4089 17.9933 52.7422 16.7067 52.7422 15.16C52.7422 13.6 52.4089 12.3133 51.7422 11.3C51.0889 10.2733 50.2155 9.76 49.1222 9.76C48.0155 9.76 47.1355 10.2733 46.4822 11.3C45.8289 12.3133 45.5022 13.6 45.5022 15.16C45.5022 16.7067 45.8289 17.9933 46.4822 19.02C47.1355 20.0467 48.0155 20.56 49.1222 20.56Z" fill="#282828"/>
</svg>
