<svg width="28" height="28" viewBox="0 0 28 28" fill="none" xmlns="http://www.w3.org/2000/svg">
<path d="M26 16L16 16L16 26C16 26.5304 15.7893 27.0391 15.4142 27.4142C15.0391 27.7893 14.5304 28 14 28C13.4696 28 12.9609 27.7893 12.5858 27.4142C12.2107 27.0391 12 26.5304 12 26L12 16L2 16C1.46956 16 0.960857 15.7893 0.585784 15.4142C0.210711 15.0391 -2.54058e-06 14.5304 -2.44784e-06 14C-2.35509e-06 13.4696 0.210712 12.9609 0.585785 12.5858C0.960857 12.2107 1.46956 12 2 12L12 12L12 2C12 1.46957 12.2107 0.960861 12.5858 0.585788C12.9609 0.210715 13.4696 2.35509e-06 14 2.44784e-06C14.5304 2.54058e-06 15.0391 0.210716 15.4142 0.585789C15.7893 0.960861 16 1.46957 16 2L16 12L26 12C26.5304 12 27.0391 12.2107 27.4142 12.5858C27.7893 12.9609 28 13.4696 28 14C28 14.5304 27.7893 15.0391 27.4142 15.4142C27.0391 15.7893 26.5304 16 26 16Z" fill="#F4F3F2"/>
</svg>
