<svg width="44" height="44" viewBox="0 0 44 44" fill="none" xmlns="http://www.w3.org/2000/svg">
<g clip-path="url(#clip0_61_3500)">
<path d="M41.25 0H2.75C1.23337 0 0 1.23337 0 2.75V41.25C0 42.7666 1.23337 44 2.75 44H41.25C42.7666 44 44 42.7666 44 41.25V2.75C44 1.23337 42.7666 0 41.25 0ZM41.25 41.25L2.75 41.2514V2.75H41.25V41.25Z" fill="#828181"/>
<path d="M27.0975 14.7221L25.1532 12.7778L16.9032 21.0278C16.3656 21.5655 16.3656 22.4345 16.9032 22.9721L25.1532 31.2221L27.0975 29.2778L19.8196 21.9999L27.0975 14.7221Z" fill="#828181"/>
</g>
<defs>
<clipPath id="clip0_61_3500">
<rect width="44" height="44" fill="white"/>
</clipPath>
</defs>
</svg>
