<svg width="209" height="39" viewBox="0 0 209 39" fill="none" xmlns="http://www.w3.org/2000/svg">
<path d="M52.4 26.2451H63.2V29.3451H48.6V26.2451C59.1 23.7451 59.2 23.3451 59.2 22.6451C59.2 22.1451 58.6 21.7451 55.7 21.7451C53.3 21.7451 52.1 22.1451 52 22.8451H48C48 20.4451 50.5 18.7451 55.5 18.7451C59.8 18.7451 63.2 19.2451 63.2 22.3451C63.2 24.8451 59.8 25.3451 55.6 25.8451L52.4 26.2451Z" fill="#F4F3F2"/>
<path d="M81.1 22.0448H74.7V29.2448H70.7V22.0448H64.3V18.9448H81V22.0448H81.1Z" fill="#F4F3F2"/>
<path d="M101.1 19.0448V29.3448H97.1V25.6448H86.8V29.3448H82.8V19.0448H86.8V22.5448H97.1V18.9448H101.1V19.0448Z" fill="#F4F3F2"/>
<path d="M119.6 26.2449V29.3449H103.4V19.0449H119.6V22.1449H107.4V23.4449H117.4V25.0449H107.4V26.3449H119.6V26.2449Z" fill="#F4F3F2"/>
<path d="M144.8 19.0449V29.3449H140.8V24.0449L135.7 29.3449H130.9L125.8 24.0449V29.3449H121.8V19.0449H125.8L133.3 26.8449L140.9 19.0449H144.8Z" fill="#F4F3F2"/>
<path d="M146.9 24.145C146.9 20.545 149.6 18.645 156.6 18.645C163.6 18.645 166.3 20.545 166.3 24.145C166.3 27.745 163.6 29.645 156.6 29.645C149.6 29.645 146.9 27.745 146.9 24.145ZM162 24.145C162 22.245 159.9 21.745 156.6 21.745C153.3 21.745 151.1 22.245 151.1 24.145C151.1 26.045 153.3 26.545 156.6 26.545C160 26.545 162 26.145 162 24.145Z" fill="#F4F3F2"/>
<path d="M168.3 24.145C168.3 20.545 171 18.645 178 18.645C185 18.645 187.7 20.545 187.7 24.145C187.7 27.745 185 29.645 178 29.645C171 29.645 168.3 27.745 168.3 24.145ZM183.4 24.145C183.4 22.245 181.3 21.745 178 21.745C174.7 21.745 172.5 22.245 172.5 24.145C172.5 26.045 174.7 26.545 178 26.545C181.4 26.545 183.4 26.145 183.4 24.145Z" fill="#F4F3F2"/>
<path d="M208.5 19.0449V29.3449H204.5L193.9 23.2449V29.3449H189.9V19.0449H193.9L204.5 25.3449V19.0449H208.5Z" fill="#F4F3F2"/>
<path d="M25.8 12.4452C19.5 5.64524 8.9 5.14523 2.1 11.3452C1.3 12.0452 0.6 12.8452 0 13.6452C0.3 12.7452 0.600002 11.9452 0.900002 11.1452C1.9 8.84523 3.4 6.74523 5.4 5.04523C13.2 -2.15477 25.4 -1.55477 32.6 6.24523C39.8 14.0452 39.2 26.2452 31.4 33.4452C29.4 35.2452 27.2 36.5452 24.9 37.3452C24.1 37.6452 23.2 37.8452 22.3 38.0452C23.2 37.5452 24 36.8452 24.8 36.1452C31.5 29.9452 32 19.3452 25.8 12.4452Z" fill="#F4F3F2"/>
<path d="M6.79999 23.145L8.89999 25.445L16.8 18.245L17.2 16.345L16.6 15.645L14.6 15.945L6.79999 23.145Z" fill="#F4F3F2"/>
<path d="M19.106 13.4243L2.19666 28.8657L2.80353 29.5303L19.7129 14.0888L19.106 13.4243Z" fill="#F4F3F2"/>
<path d="M11.5 22.4453L11.2 25.8453L10.1 27.3453L7.60001 24.0453L11.5 22.4453Z" fill="#F4F3F2"/>
<path d="M10 20.7451L6.6 20.8451L5 21.7451L8 24.5451L10 20.7451Z" fill="#F4F3F2"/>
<path d="M16.3431 27.7112L7.26575 36.0112L7.80559 36.6016L16.883 28.3016L16.3431 27.7112Z" fill="#F4F3F2"/>
<path d="M13.9382 28.5476L10.4677 31.7168L12.4232 33.8582L15.8936 30.6889L13.9382 28.5476Z" fill="#F4F3F2"/>
</svg>
